<?xml version="1.0" encoding="UTF-8"?>
<svg version="1.1" xmlns="http://www.w3.org/2000/svg" width="100" height="100">
<path d="M0 0 C0.68418188 -0.00012053 1.36836376 -0.00024107 2.07327843 -0.00036526 C4.29156095 0.00038211 6.50975982 0.0080023 8.72802734 0.01586914 C10.09610961 0.01733911 11.46419245 0.01835948 12.83227539 0.0189209 C17.90951378 0.02416744 22.98674013 0.03812861 28.06396484 0.05102539 C45.07958984 0.08196289 45.07958984 0.08196289 62.43896484 0.11352539 C62.43896484 24.53352539 62.43896484 48.95352539 62.43896484 74.11352539 C30.75146484 74.48852539 30.75146484 74.48852539 20.7644043 74.59155273 C18.15200782 74.62675832 15.53962084 74.66267953 12.92724609 74.69946289 C11.91430733 74.7077562 11.91430733 74.7077562 10.88090515 74.71621704 C8.88103633 74.73334065 6.88129539 74.76378997 4.8815918 74.79467773 C3.75574173 74.8080014 2.62989166 74.82132507 1.46992493 74.83505249 C-1.83483391 75.13868096 -5.12680862 75.67929885 -7.56103516 78.11352539 C-7.81108901 81.07169646 -7.81108901 81.07169646 -7.56103516 84.11352539 C-4.01116995 87.6633906 -0.07668687 87.25208924 4.76806641 87.31884766 C6.68960541 87.34876549 6.68960541 87.34876549 8.64996338 87.37928772 C10.04317098 87.39626949 11.43637984 87.41314838 12.82958984 87.42993164 C14.25877467 87.45051333 15.68795357 87.47151012 17.11712646 87.49290466 C20.87189935 87.54799988 24.62672602 87.59746428 28.3815918 87.64575195 C32.2158688 87.69605884 36.05006804 87.75169687 39.88427734 87.80688477 C47.40244059 87.91431275 54.92066866 88.01579155 62.43896484 88.11352539 C62.43896484 89.43352539 62.43896484 90.75352539 62.43896484 92.11352539 C53.52887519 92.18308494 44.61887925 92.23636678 35.70857716 92.26896191 C31.57100129 92.28460721 27.43361141 92.30582456 23.29614258 92.33984375 C19.30204634 92.37247798 15.30812882 92.39038695 11.31390953 92.39815712 C9.79128901 92.40369336 8.26867809 92.41450439 6.7461338 92.43071556 C4.61073414 92.45254453 2.47606974 92.45549013 0.34057617 92.45410156 C-1.48143562 92.46409431 -1.48143562 92.46409431 -3.34025574 92.47428894 C-6.89603241 92.07600193 -8.7292008 91.2644809 -11.56103516 89.11352539 C-13.97834465 85.48756115 -13.86355352 82.80836635 -13.86743164 78.61621094 C-13.87575516 77.85487854 -13.88407867 77.09354614 -13.89265442 76.30914307 C-13.91677109 73.78945821 -13.92552906 71.27003222 -13.93212891 68.75024414 C-13.94109495 66.9977053 -13.95021679 65.24516726 -13.95948792 63.49263 C-13.97598567 59.81651957 -13.98367928 56.14050028 -13.98657227 52.46435547 C-13.99195271 47.75981608 -14.02961486 43.05613672 -14.07531643 38.35184002 C-14.10510107 34.73064571 -14.11229614 31.10965797 -14.11329842 27.48835182 C-14.11749901 25.75442382 -14.12992697 24.02049511 -14.15081596 22.28668785 C-14.17775696 19.85682916 -14.17289801 17.4289566 -14.16040039 14.99902344 C-14.17523468 14.28659988 -14.19006897 13.57417633 -14.20535278 12.84016418 C-14.12319379 7.21377716 -12.39988005 4.92583882 -8.56103516 1.11352539 C-5.68359248 -0.32519595 -3.21537593 -0.00584614 0 0 Z M2.43896484 17.11352539 C2.34072547 18.7778159 2.30922853 20.4463447 2.31396484 22.11352539 C2.31138672 23.02102539 2.30880859 23.92852539 2.30615234 24.86352539 C2.18722705 27.0831915 2.18722705 27.0831915 3.43896484 28.11352539 C4.81506366 28.2114785 6.19610367 28.24150627 7.57568359 28.24291992 C8.89209839 28.24764816 8.89209839 28.24764816 10.23510742 28.25247192 C11.18925537 28.25044769 12.14340332 28.24842346 13.12646484 28.24633789 C14.58572388 28.24777298 14.58572388 28.24777298 16.07446289 28.24923706 C18.13574284 28.24991897 20.19702493 28.24806392 22.25830078 28.24389648 C25.42534173 28.2385484 28.59224084 28.24384111 31.75927734 28.25024414 C33.75667349 28.24958336 35.75406955 28.2483022 37.75146484 28.24633789 C38.70561279 28.24836212 39.65976074 28.25038635 40.64282227 28.25247192 C41.52043213 28.24931976 42.39804199 28.2461676 43.30224609 28.24291992 C44.07866455 28.24212433 44.85508301 28.24132874 45.6550293 28.24050903 C47.46330146 28.30756081 47.46330146 28.30756081 48.43896484 27.11352539 C48.53720421 25.44923488 48.56870115 23.78070608 48.56396484 22.11352539 C48.56654297 21.20602539 48.56912109 20.29852539 48.57177734 19.36352539 C48.69070263 17.14385928 48.69070263 17.14385928 47.43896484 16.11352539 C46.06286602 16.01557228 44.68182602 15.98554451 43.30224609 15.98413086 C42.42463623 15.9809787 41.54702637 15.97782654 40.64282227 15.97457886 C39.68867432 15.97660309 38.73452637 15.97862732 37.75146484 15.98071289 C36.77862549 15.97975616 35.80578613 15.97879944 34.8034668 15.97781372 C32.74218684 15.97713181 30.68090476 15.97898687 28.61962891 15.9831543 C25.45258796 15.98850239 22.28568884 15.98320967 19.11865234 15.97680664 C17.1212562 15.97746742 15.12386014 15.97874858 13.12646484 15.98071289 C12.17231689 15.97868866 11.21816895 15.97666443 10.23510742 15.97457886 C8.91869263 15.9793071 8.91869263 15.9793071 7.57568359 15.98413086 C6.79926514 15.98492645 6.02284668 15.98572205 5.22290039 15.98654175 C3.41462823 15.91948997 3.41462823 15.91948997 2.43896484 17.11352539 Z " fill="#FFFFFF" transform="translate(25.56103515625,3.886474609375)"/>
</svg>
