<?xml version="1.0" encoding="UTF-8"?>
<svg version="1.1" xmlns="http://www.w3.org/2000/svg" width="150" height="100">
<path d="M0 0 C5.56340585 3.36669624 9.53349183 8.25193794 11.5 14.4375 C12.30594257 22.2813829 12.59671889 30.02934467 7.5 36.4375 C3.04867668 41.14197914 -1.19064516 44.09747071 -7.76953125 44.7734375 C-16.04371997 44.8646634 -22.08428015 44.61560264 -28.2421875 38.7890625 C-34.17397269 32.28964236 -34.96296445 26.57688134 -34.80859375 17.88671875 C-34.22339005 11.3457711 -31.85547257 7.43687235 -27.0625 3.0625 C-19.84507341 -2.93248543 -8.52200107 -3.84066973 0 0 Z " fill="#000000" transform="translate(40.5,28.5625)"/>
<path d="M0 0 C1.10927856 -0.00574036 1.10927856 -0.00574036 2.2409668 -0.01159668 C3.8009579 -0.01431271 5.36099478 -0.00697292 6.92089844 0.00976562 C9.30507186 0.03118327 11.68623249 0.00995737 14.0703125 -0.015625 C15.5885483 -0.01298166 17.10678223 -0.00785656 18.625 0 C19.33551514 -0.00809692 20.04603027 -0.01619385 20.77807617 -0.02453613 C23.97928823 0.03593335 26.03764547 0.35686105 28.75976562 2.08398438 C30.87472331 5.41737052 30.88737105 8.39094846 30.84375 12.21875 C30.8475769 12.95826904 30.85140381 13.69778809 30.85534668 14.4597168 C30.85806271 16.0197079 30.85072292 17.57974478 30.83398438 19.13964844 C30.81256673 21.52382186 30.83379263 23.90498249 30.859375 26.2890625 C30.85673166 27.8072983 30.85160656 29.32553223 30.84375 30.84375 C30.85184692 31.55426514 30.85994385 32.26478027 30.86828613 32.99682617 C30.80781665 36.19803823 30.48688895 38.25639547 28.75976562 40.97851562 C25.42637948 43.09347331 22.45280154 43.10612105 18.625 43.0625 C17.88548096 43.0663269 17.14596191 43.07015381 16.3840332 43.07409668 C14.8240421 43.07681271 13.26400522 43.06947292 11.70410156 43.05273438 C9.31992814 43.03131673 6.93876751 43.05254263 4.5546875 43.078125 C3.0364517 43.07548166 1.51821777 43.07035656 0 43.0625 C-0.71051514 43.07059692 -1.42103027 43.07869385 -2.15307617 43.08703613 C-5.35428823 43.02656665 -7.41264547 42.70563895 -10.13476562 40.97851562 C-12.24972331 37.64512948 -12.26237105 34.67155154 -12.21875 30.84375 C-12.2225769 30.10423096 -12.22640381 29.36471191 -12.23034668 28.6027832 C-12.23306271 27.0427921 -12.22572292 25.48275522 -12.20898438 23.92285156 C-12.18756673 21.53867814 -12.20879263 19.15751751 -12.234375 16.7734375 C-12.23173166 15.2552017 -12.22660656 13.73696777 -12.21875 12.21875 C-12.22684692 11.50823486 -12.23494385 10.79771973 -12.24328613 10.06567383 C-12.18281665 6.86446177 -11.86188895 4.80610453 -10.13476562 2.08398438 C-6.80137948 -0.03097331 -3.82780154 -0.04362105 0 0 Z " fill="#000000" transform="translate(115.6875,28.46875)"/>
<path d="M0 0 C3.4904894 0.87262235 5.75134312 1.81062629 8.8515625 3.51171875 C9.78613281 4.02283203 10.72070312 4.53394531 11.68359375 5.06054688 C12.65425781 5.59744141 13.62492187 6.13433594 14.625 6.6875 C15.57246094 7.20505859 16.51992187 7.72261719 17.49609375 8.25585938 C20.34148123 9.81868164 23.17072838 11.40822889 26 13 C26.9703418 13.5254541 27.94068359 14.0509082 28.94042969 14.59228516 C30.31183105 15.36064697 30.31183105 15.36064697 31.7109375 16.14453125 C32.5364209 16.59803955 33.3619043 17.05154785 34.21240234 17.51879883 C34.80230957 18.00759521 35.3922168 18.4963916 36 19 C36 20.32 36 21.64 36 23 C35.03344482 23.54358154 35.03344482 23.54358154 34.04736328 24.09814453 C31.07242391 25.77231363 28.09870811 27.44864494 25.125 29.125 C24.11179687 29.69476563 23.09859375 30.26453125 22.0546875 30.8515625 C16.30779725 34.09339803 10.63437924 37.40674643 5.05419922 40.92919922 C3 42 3 42 0 42 C0 28.14 0 14.28 0 0 Z " fill="#000000" transform="translate(61,29)"/>
</svg>
