<?xml version="1.0" encoding="UTF-8"?>
<svg version="1.1" xmlns="http://www.w3.org/2000/svg" width="100" height="100">
<path d="M0 0 C0.75925781 -0.06058594 1.51851562 -0.12117187 2.30078125 -0.18359375 C5.23109674 0.57895971 6.74735992 1.89666817 8.61833191 4.25108337 C11.0624082 9.24914595 10.35234147 15.14638119 10.28125 20.59375 C10.27953685 21.98327531 10.27960665 23.37280386 10.28137207 24.7623291 C10.27972284 27.66755303 10.26110046 30.57200157 10.22949219 33.47705078 C10.18981479 37.1893295 10.18544923 40.90059419 10.19295502 44.61304474 C10.1960337 47.48025703 10.18387254 50.347244 10.16682434 53.21440125 C10.15982419 54.58264247 10.15666616 55.95090922 10.15751648 57.31916809 C10.15570637 59.23563708 10.13198281 61.15204692 10.10742188 63.06835938 C10.09900269 64.15612671 10.0905835 65.24389404 10.08190918 66.36462402 C9.45908006 71.21713945 7.7147959 74.46156889 4.1875 77.8125 C-0.71048778 80.08656575 -4.99800861 80.23506854 -10.3125 79.4375 C-14.22325925 77.44781547 -15.88939098 76.07216354 -18.3125 72.4375 C-19.42625 71.963125 -20.54 71.48875 -21.6875 71 C-26.35526009 68.98803444 -28.49749628 67.27125837 -30.5625 62.625 C-31.3125 59.4375 -31.3125 59.4375 -31.25 55.875 C-31.32102686 51.9685226 -32.28700916 50.67828534 -34.3125 47.4375 C-35.89084189 41.46234858 -34.69052898 37.85281351 -32.3125 32.4375 C-31.14177741 29.34948773 -31.14177741 29.34948773 -31.0625 25.5625 C-30.66642568 22.10004384 -30.25034913 21.35899363 -27.9375 18.4375 C-25.3125 16.4375 -25.3125 16.4375 -22.3125 16.4375 C-22.27125 15.550625 -22.23 14.66375 -22.1875 13.75 C-20.99772654 9.24585763 -19.21516941 7.8947363 -15.3125 5.4375 C-11.4375 5.125 -11.4375 5.125 -8.3125 5.4375 C-8.02375 4.798125 -7.735 4.15875 -7.4375 3.5 C-5.64111038 0.20661904 -3.52567364 0.19554156 0 0 Z M-18.3125 20.4375 C-18.3125 21.4275 -18.3125 22.4175 -18.3125 23.4375 C-16.03412458 25.71587542 -14.80437763 26.40396289 -11.5625 26.625 C-10.82 26.563125 -10.0775 26.50125 -9.3125 26.4375 C-9.3125 25.4475 -9.3125 24.4575 -9.3125 23.4375 C-13.5762281 21.07839647 -13.5762281 21.07839647 -18.3125 20.4375 Z M-24.3125 30.4375 C-24.3125 31.4275 -24.3125 32.4175 -24.3125 33.4375 C-22.3325 33.9325 -22.3325 33.9325 -20.3125 34.4375 C-19.6525 33.4475 -18.9925 32.4575 -18.3125 31.4375 C-19.37895115 30.14116379 -19.37895115 30.14116379 -21.875 30.375 C-22.679375 30.395625 -23.48375 30.41625 -24.3125 30.4375 Z M-10.3125 36.4375 C-10.40724609 37.54158203 -10.40724609 37.54158203 -10.50390625 38.66796875 C-11.4995994 46.60207097 -11.4995994 46.60207097 -14.00390625 49.17578125 C-15.74322316 50.31072946 -17.52579838 51.37871386 -19.3125 52.4375 C-19.3125 53.4275 -19.3125 54.4175 -19.3125 55.4375 C-14.87760237 54.93065456 -12.43195264 53.6390435 -9.3125 50.4375 C-6.65343547 45.64095668 -5.82765159 41.83694875 -7.3125 36.4375 C-8.3025 36.4375 -9.2925 36.4375 -10.3125 36.4375 Z " fill="#FFFFFF" transform="translate(38.3125,10.5625)"/>
<path d="M0 0 C3.85895726 0.00753703 5.46162086 0.10878398 8.5 2.69140625 C10.26739304 6.07890958 10.6277457 7.79993205 10 11.56640625 C8.5 14.44140625 8.5 14.44140625 6 16.56640625 C3.21027184 17.2238217 0.7639018 17.34915188 -2 16.56640625 C-2.58040039 15.90729248 -3.16080078 15.24817871 -3.75878906 14.5690918 C-6.59887046 12.03127178 -8.09538741 12.03384732 -11.859375 11.95703125 C-12.97441406 11.92480469 -14.08945313 11.89257812 -15.23828125 11.859375 C-16.97658203 11.83810547 -16.97658203 11.83810547 -18.75 11.81640625 C-19.92433594 11.78675781 -21.09867188 11.75710937 -22.30859375 11.7265625 C-25.20579822 11.65589898 -28.10219955 11.60318359 -31 11.56640625 C-31.38218767 9.91025968 -31.71395102 8.24183601 -32 6.56640625 C-30.27315193 4.83955818 -27.92683856 5.41653943 -25.57421875 5.390625 C-24.46755859 5.36677734 -23.36089844 5.34292969 -22.22070312 5.31835938 C-19.87713471 5.27560771 -17.53332925 5.24423983 -15.18945312 5.22460938 C-14.07892578 5.19689453 -12.96839844 5.16917969 -11.82421875 5.140625 C-10.29414185 5.11875122 -10.29414185 5.11875122 -8.7331543 5.09643555 C-4.69611836 4.31354988 -3.67905561 1.04192005 0 0 Z M1 5.56640625 C0.34 6.88640625 -0.32 8.20640625 -1 9.56640625 C0.485 10.55640625 0.485 10.55640625 2 11.56640625 C2.66 11.23640625 3.32 10.90640625 4 10.56640625 C4 9.24640625 4 7.92640625 4 6.56640625 C3.01 6.23640625 2.02 5.90640625 1 5.56640625 Z " fill="#FFFFFF" transform="translate(85,41.43359375)"/>
<path d="M0 0 C2.1640625 0.4140625 2.1640625 0.4140625 4.7265625 2.5390625 C6.42930118 5.94453986 6.86744765 7.66267502 6.1640625 11.4140625 C4.1015625 14.2890625 4.1015625 14.2890625 1.1640625 16.4140625 C0.0503125 16.3728125 -1.0634375 16.3315625 -2.2109375 16.2890625 C-5.77393239 15.98494041 -5.77393239 15.98494041 -7.27734375 17.953125 C-7.77105469 18.60023437 -8.26476562 19.24734375 -8.7734375 19.9140625 C-10.59982246 22.01525076 -11.92316013 23.25232559 -14.70703125 23.74560547 C-19.43043984 24.04136018 -24.12254464 23.77053759 -28.8359375 23.4140625 C-28.8359375 21.7640625 -28.8359375 20.1140625 -28.8359375 18.4140625 C-25.43581282 16.71400016 -21.53818725 17.12212791 -17.78125 16.98828125 C-14.19168569 16.28845903 -12.98989703 15.33692957 -10.8359375 12.4140625 C-10.25782108 10.16934045 -10.25782108 10.16934045 -10.2734375 7.8515625 C-10.19732311 5.19651359 -10.14401618 3.8444099 -8.5859375 1.66796875 C-5.78800189 -0.33680208 -3.34672501 -0.11991523 0 0 Z M-2.8359375 5.4140625 C-3.4959375 6.7340625 -4.1559375 8.0540625 -4.8359375 9.4140625 C-3.5159375 9.7440625 -2.1959375 10.0740625 -0.8359375 10.4140625 C-0.5059375 9.0940625 -0.1759375 7.7740625 0.1640625 6.4140625 C-0.8259375 6.0840625 -1.8159375 5.7540625 -2.8359375 5.4140625 Z " fill="#FFFFFF" transform="translate(81.8359375,17.5859375)"/>
<path d="M0 0 C14.4964132 -0.92969871 14.4964132 -0.92969871 18.046875 1.265625 C18.92560783 2.33044243 19.76954168 3.42504508 20.57421875 4.546875 C23.05859849 7.07890038 26.32658025 7.03771781 29.73046875 7.3828125 C32.70829242 8.19261653 33.48254238 9.36619617 35 12 C35.54930341 15.68818005 35.23375591 17.53248818 33.5625 20.875 C30.2853351 23.59264895 28.25815817 23.524562 24.12109375 23.46875 C21.48180214 22.88548114 20.56824151 22.19063736 19 20 C18.60239322 17.72736335 18.56238538 15.55798396 18.50390625 13.25390625 C17.79486097 10.08244017 16.58463373 8.93524988 14 7 C11.03401327 6.34211396 11.03401327 6.34211396 7.875 6.3125 C2.13368984 6.06684492 2.13368984 6.06684492 0 5 C0 3.35 0 1.7 0 0 Z M25 13 C25 14.32 25 15.64 25 17 C26.32 17 27.64 17 29 17 C28.67 15.68 28.34 14.36 28 13 C27.01 13 26.02 13 25 13 Z " fill="#FFFFFF" transform="translate(53,59)"/>
<path d="M0 0 C3.4375 0.5625 3.4375 0.5625 5.8125 2.1875 C7.82256043 5.12528062 8.36483979 7.0021496 8.4375 10.5625 C6.30706522 15.12771739 6.30706522 15.12771739 3.4375 16.5625 C0.50328994 16.84645581 -1.71348834 17.05798029 -4.5625 16.5625 C-7.55347304 14.02017292 -8.40452557 12.4050303 -9.125 8.5625 C-8.10942024 3.14607461 -5.36154281 0.84655939 0 0 Z M-1.5625 6.5625 C-1.8925 7.8825 -2.2225 9.2025 -2.5625 10.5625 C-1.5725 10.8925 -0.5825 11.2225 0.4375 11.5625 C1.0975 10.2425 1.7575 8.9225 2.4375 7.5625 C1.1175 7.2325 -0.2025 6.9025 -1.5625 6.5625 Z " fill="#FFFFFF" transform="translate(59.5625,76.4375)"/>
<path d="M0 0 C2.80398661 0.51243287 4.09782877 1.11005767 5.90234375 3.34765625 C7.00607753 7.32109786 7.31777958 9.43765397 5.58984375 13.22265625 C3.90234375 15.34765625 3.90234375 15.34765625 1.90234375 16.34765625 C-2.47127639 16.84278306 -4.41720869 16.83989491 -8.03515625 14.22265625 C-10.09765625 11.34765625 -10.09765625 11.34765625 -10.66015625 8.34765625 C-9.43712044 1.82479858 -6.38183283 -0.46348507 0 0 Z M-4.09765625 6.34765625 C-3.76765625 7.66765625 -3.43765625 8.98765625 -3.09765625 10.34765625 C-1.77765625 10.01765625 -0.45765625 9.68765625 0.90234375 9.34765625 C0.24234375 8.02765625 -0.41765625 6.70765625 -1.09765625 5.34765625 C-2.32126305 5.27312065 -2.32126305 5.27312065 -4.09765625 6.34765625 Z " fill="#FFFFFF" transform="translate(61.09765625,6.65234375)"/>
</svg>
